<svg width="80" height="47" viewBox="0 0 80 47" fill="none" xmlns="http://www.w3.org/2000/svg">
<line x1="23.3113" y1="17.8048" x2="40.7112" y2="1.27479" stroke="#EEBC1D" stroke-width="2"/>
<line y1="-1" x2="24" y2="-1" transform="matrix(-0.724999 -0.688749 -0.688749 0.724999 56 18.5298)" stroke="#EEBC1D" stroke-width="2"/>
<line x1="23.3113" y1="25.4044" x2="40.7112" y2="8.8744" stroke="#EEBC1D" stroke-width="2"/>
<line y1="-1" x2="24" y2="-1" transform="matrix(-0.724999 -0.688749 -0.688749 0.724999 56 26.1294)" stroke="#EEBC1D" stroke-width="2"/>
<path d="M10.832 32H12.2441V39.6465L12.1094 41H10.832V32ZM16.3809 37.7715V37.8945C16.3809 38.3633 16.3281 38.7949 16.2227 39.1895C16.1211 39.5801 15.9648 39.9199 15.7539 40.209C15.5469 40.498 15.2891 40.7227 14.9805 40.8828C14.6758 41.0391 14.3223 41.1172 13.9199 41.1172C13.5254 41.1172 13.1816 41.043 12.8887 40.8945C12.5957 40.7461 12.3496 40.5352 12.1504 40.2617C11.9551 39.9883 11.7969 39.6621 11.6758 39.2832C11.5547 38.9043 11.4688 38.4863 11.418 38.0293V37.6367C11.4688 37.1758 11.5547 36.7578 11.6758 36.3828C11.7969 36.0039 11.9551 35.6777 12.1504 35.4043C12.3496 35.127 12.5938 34.9141 12.8828 34.7656C13.1758 34.6172 13.5176 34.543 13.9082 34.543C14.3145 34.543 14.6719 34.6211 14.9805 34.7773C15.293 34.9336 15.5527 35.1562 15.7598 35.4453C15.9668 35.7305 16.1211 36.0703 16.2227 36.4648C16.3281 36.8594 16.3809 37.2949 16.3809 37.7715ZM14.9688 37.8945V37.7715C14.9688 37.4863 14.9453 37.2188 14.8984 36.9688C14.8516 36.7148 14.7734 36.4922 14.6641 36.3008C14.5586 36.1094 14.4141 35.959 14.2305 35.8496C14.0508 35.7363 13.8262 35.6797 13.5566 35.6797C13.3066 35.6797 13.0918 35.7227 12.9121 35.8086C12.7324 35.8945 12.582 36.0117 12.4609 36.1602C12.3398 36.3086 12.2441 36.4805 12.1738 36.6758C12.1074 36.8711 12.0625 37.082 12.0391 37.3086V38.3691C12.0742 38.6621 12.1484 38.9316 12.2617 39.1777C12.3789 39.4199 12.543 39.6152 12.7539 39.7637C12.9648 39.9082 13.2363 39.9805 13.5684 39.9805C13.8301 39.9805 14.0508 39.9277 14.2305 39.8223C14.4102 39.7168 14.5527 39.5703 14.6582 39.3828C14.7676 39.1914 14.8457 38.9688 14.8926 38.7148C14.9434 38.4609 14.9688 38.1875 14.9688 37.8945ZM21.1504 39.7285V36.7051C21.1504 36.4785 21.1094 36.2832 21.0273 36.1191C20.9453 35.9551 20.8203 35.8281 20.6523 35.7383C20.4883 35.6484 20.2812 35.6035 20.0312 35.6035C19.8008 35.6035 19.6016 35.6426 19.4336 35.7207C19.2656 35.7988 19.1348 35.9043 19.041 36.0371C18.9473 36.1699 18.9004 36.3203 18.9004 36.4883H17.4941C17.4941 36.2383 17.5547 35.9961 17.6758 35.7617C17.7969 35.5273 17.9727 35.3184 18.2031 35.1348C18.4336 34.9512 18.709 34.8066 19.0293 34.7012C19.3496 34.5957 19.709 34.543 20.1074 34.543C20.584 34.543 21.0059 34.623 21.373 34.7832C21.7441 34.9434 22.0352 35.1855 22.2461 35.5098C22.4609 35.8301 22.5684 36.2324 22.5684 36.7168V39.5352C22.5684 39.8242 22.5879 40.084 22.627 40.3145C22.6699 40.541 22.7305 40.7383 22.8086 40.9062V41H21.3613C21.2949 40.8477 21.2422 40.6543 21.2031 40.4199C21.168 40.1816 21.1504 39.9512 21.1504 39.7285ZM21.3555 37.1445L21.3672 38.0176H20.3535C20.0918 38.0176 19.8613 38.043 19.6621 38.0938C19.4629 38.1406 19.2969 38.2109 19.1641 38.3047C19.0312 38.3984 18.9316 38.5117 18.8652 38.6445C18.7988 38.7773 18.7656 38.9277 18.7656 39.0957C18.7656 39.2637 18.8047 39.418 18.8828 39.5586C18.9609 39.6953 19.0742 39.8027 19.2227 39.8809C19.375 39.959 19.5586 39.998 19.7734 39.998C20.0625 39.998 20.3145 39.9395 20.5293 39.8223C20.748 39.7012 20.9199 39.5547 21.0449 39.3828C21.1699 39.207 21.2363 39.041 21.2441 38.8848L21.7012 39.5117C21.6543 39.6719 21.5742 39.8438 21.4609 40.0273C21.3477 40.2109 21.1992 40.3867 21.0156 40.5547C20.8359 40.7188 20.6191 40.8535 20.3652 40.959C20.1152 41.0645 19.8262 41.1172 19.498 41.1172C19.084 41.1172 18.7148 41.0352 18.3906 40.8711C18.0664 40.7031 17.8125 40.4785 17.6289 40.1973C17.4453 39.9121 17.3535 39.5898 17.3535 39.2305C17.3535 38.8945 17.416 38.5977 17.541 38.3398C17.6699 38.0781 17.8574 37.8594 18.1035 37.6836C18.3535 37.5078 18.6582 37.375 19.0176 37.2852C19.377 37.1914 19.7871 37.1445 20.248 37.1445H21.3555ZM26.6348 39.9922C26.8652 39.9922 27.0723 39.9473 27.2559 39.8574C27.4434 39.7637 27.5938 39.6348 27.707 39.4707C27.8242 39.3066 27.8887 39.1172 27.9004 38.9023H29.2305C29.2227 39.3125 29.1016 39.6855 28.8672 40.0215C28.6328 40.3574 28.3223 40.625 27.9355 40.8242C27.5488 41.0195 27.1211 41.1172 26.6523 41.1172C26.168 41.1172 25.7461 41.0352 25.3867 40.8711C25.0273 40.7031 24.7285 40.4727 24.4902 40.1797C24.252 39.8867 24.0723 39.5488 23.9512 39.166C23.834 38.7832 23.7754 38.373 23.7754 37.9355V37.7305C23.7754 37.293 23.834 36.8828 23.9512 36.5C24.0723 36.1133 24.252 35.7734 24.4902 35.4805C24.7285 35.1875 25.0273 34.959 25.3867 34.7949C25.7461 34.627 26.166 34.543 26.6465 34.543C27.1543 34.543 27.5996 34.6445 27.9824 34.8477C28.3652 35.0469 28.666 35.3262 28.8848 35.6855C29.1074 36.041 29.2227 36.4551 29.2305 36.9277H27.9004C27.8887 36.6934 27.8301 36.4824 27.7246 36.2949C27.623 36.1035 27.4785 35.9512 27.291 35.8379C27.1074 35.7246 26.8867 35.668 26.6289 35.668C26.3438 35.668 26.1074 35.7266 25.9199 35.8438C25.7324 35.957 25.5859 36.1133 25.4805 36.3125C25.375 36.5078 25.2988 36.7285 25.252 36.9746C25.209 37.2168 25.1875 37.4688 25.1875 37.7305V37.9355C25.1875 38.1973 25.209 38.4512 25.252 38.6973C25.2949 38.9434 25.3691 39.1641 25.4746 39.3594C25.584 39.5508 25.7324 39.7051 25.9199 39.8223C26.1074 39.9355 26.3457 39.9922 26.6348 39.9922ZM31.7383 32V41H30.3203V32H31.7383ZM35.6758 34.6602L32.916 37.7188L31.4043 39.2656L31.0352 38.0703L32.1777 36.6582L33.9707 34.6602H35.6758ZM34.2754 41L32.2188 38.0234L33.1094 37.0332L35.9102 41H34.2754ZM42.4668 34.6602V35.6914H38.8926V34.6602H42.4668ZM39.9238 33.1074H41.3359V39.248C41.3359 39.4434 41.3633 39.5938 41.418 39.6992C41.4766 39.8008 41.5566 39.8691 41.6582 39.9043C41.7598 39.9395 41.8789 39.957 42.0156 39.957C42.1133 39.957 42.207 39.9512 42.2969 39.9395C42.3867 39.9277 42.459 39.916 42.5137 39.9043L42.5195 40.9824C42.4023 41.0176 42.2656 41.0488 42.1094 41.0762C41.957 41.1035 41.7812 41.1172 41.582 41.1172C41.2578 41.1172 40.9707 41.0605 40.7207 40.9473C40.4707 40.8301 40.2754 40.6406 40.1348 40.3789C39.9941 40.1172 39.9238 39.7695 39.9238 39.3359V33.1074ZM43.1465 37.9004V37.7656C43.1465 37.3086 43.2129 36.8848 43.3457 36.4941C43.4785 36.0996 43.6699 35.7578 43.9199 35.4688C44.1738 35.1758 44.4824 34.9492 44.8457 34.7891C45.2129 34.625 45.627 34.543 46.0879 34.543C46.5527 34.543 46.9668 34.625 47.3301 34.7891C47.6973 34.9492 48.0078 35.1758 48.2617 35.4688C48.5156 35.7578 48.709 36.0996 48.8418 36.4941C48.9746 36.8848 49.041 37.3086 49.041 37.7656V37.9004C49.041 38.3574 48.9746 38.7812 48.8418 39.1719C48.709 39.5625 48.5156 39.9043 48.2617 40.1973C48.0078 40.4863 47.6992 40.7129 47.3359 40.877C46.9727 41.0371 46.5605 41.1172 46.0996 41.1172C45.6348 41.1172 45.2188 41.0371 44.8516 40.877C44.4883 40.7129 44.1797 40.4863 43.9258 40.1973C43.6719 39.9043 43.4785 39.5625 43.3457 39.1719C43.2129 38.7812 43.1465 38.3574 43.1465 37.9004ZM44.5586 37.7656V37.9004C44.5586 38.1855 44.5879 38.4551 44.6465 38.709C44.7051 38.9629 44.7969 39.1855 44.9219 39.377C45.0469 39.5684 45.207 39.7188 45.4023 39.8281C45.5977 39.9375 45.8301 39.9922 46.0996 39.9922C46.3613 39.9922 46.5879 39.9375 46.7793 39.8281C46.9746 39.7188 47.1348 39.5684 47.2598 39.377C47.3848 39.1855 47.4766 38.9629 47.5352 38.709C47.5977 38.4551 47.6289 38.1855 47.6289 37.9004V37.7656C47.6289 37.4844 47.5977 37.2188 47.5352 36.9688C47.4766 36.7148 47.3828 36.4902 47.2539 36.2949C47.1289 36.0996 46.9688 35.9473 46.7734 35.8379C46.582 35.7246 46.3535 35.668 46.0879 35.668C45.8223 35.668 45.5918 35.7246 45.3965 35.8379C45.2051 35.9473 45.0469 36.0996 44.9219 36.2949C44.7969 36.4902 44.7051 36.7148 44.6465 36.9688C44.5879 37.2188 44.5586 37.4844 44.5586 37.7656ZM56.1191 34.6602V35.6914H52.5449V34.6602H56.1191ZM53.5762 33.1074H54.9883V39.248C54.9883 39.4434 55.0156 39.5938 55.0703 39.6992C55.1289 39.8008 55.209 39.8691 55.3105 39.9043C55.4121 39.9395 55.5312 39.957 55.668 39.957C55.7656 39.957 55.8594 39.9512 55.9492 39.9395C56.0391 39.9277 56.1113 39.916 56.166 39.9043L56.1719 40.9824C56.0547 41.0176 55.918 41.0488 55.7617 41.0762C55.6094 41.1035 55.4336 41.1172 55.2344 41.1172C54.9102 41.1172 54.623 41.0605 54.373 40.9473C54.123 40.8301 53.9277 40.6406 53.7871 40.3789C53.6465 40.1172 53.5762 39.7695 53.5762 39.3359V33.1074ZM56.7988 37.9004V37.7656C56.7988 37.3086 56.8652 36.8848 56.998 36.4941C57.1309 36.0996 57.3223 35.7578 57.5723 35.4688C57.8262 35.1758 58.1348 34.9492 58.498 34.7891C58.8652 34.625 59.2793 34.543 59.7402 34.543C60.2051 34.543 60.6191 34.625 60.9824 34.7891C61.3496 34.9492 61.6602 35.1758 61.9141 35.4688C62.168 35.7578 62.3613 36.0996 62.4941 36.4941C62.627 36.8848 62.6934 37.3086 62.6934 37.7656V37.9004C62.6934 38.3574 62.627 38.7812 62.4941 39.1719C62.3613 39.5625 62.168 39.9043 61.9141 40.1973C61.6602 40.4863 61.3516 40.7129 60.9883 40.877C60.625 41.0371 60.2129 41.1172 59.752 41.1172C59.2871 41.1172 58.8711 41.0371 58.5039 40.877C58.1406 40.7129 57.832 40.4863 57.5781 40.1973C57.3242 39.9043 57.1309 39.5625 56.998 39.1719C56.8652 38.7812 56.7988 38.3574 56.7988 37.9004ZM58.2109 37.7656V37.9004C58.2109 38.1855 58.2402 38.4551 58.2988 38.709C58.3574 38.9629 58.4492 39.1855 58.5742 39.377C58.6992 39.5684 58.8594 39.7188 59.0547 39.8281C59.25 39.9375 59.4824 39.9922 59.752 39.9922C60.0137 39.9922 60.2402 39.9375 60.4316 39.8281C60.627 39.7188 60.7871 39.5684 60.9121 39.377C61.0371 39.1855 61.1289 38.9629 61.1875 38.709C61.25 38.4551 61.2812 38.1855 61.2812 37.9004V37.7656C61.2812 37.4844 61.25 37.2188 61.1875 36.9688C61.1289 36.7148 61.0352 36.4902 60.9062 36.2949C60.7812 36.0996 60.6211 35.9473 60.4258 35.8379C60.2344 35.7246 60.0059 35.668 59.7402 35.668C59.4746 35.668 59.2441 35.7246 59.0488 35.8379C58.8574 35.9473 58.6992 36.0996 58.5742 36.2949C58.4492 36.4902 58.3574 36.7148 58.2988 36.9688C58.2402 37.2188 58.2109 37.4844 58.2109 37.7656ZM65.2949 35.8789V43.4375H63.8828V34.6602H65.1836L65.2949 35.8789ZM69.4258 37.7715V37.8945C69.4258 38.3555 69.3711 38.7832 69.2617 39.1777C69.1562 39.5684 68.998 39.9102 68.7871 40.2031C68.5801 40.4922 68.3242 40.7168 68.0195 40.877C67.7148 41.0371 67.3633 41.1172 66.9648 41.1172C66.5703 41.1172 66.2246 41.0449 65.9277 40.9004C65.6348 40.752 65.3867 40.543 65.1836 40.2734C64.9805 40.0039 64.8164 39.6875 64.6914 39.3242C64.5703 38.957 64.4844 38.5547 64.4336 38.1172V37.6426C64.4844 37.1777 64.5703 36.7559 64.6914 36.377C64.8164 35.998 64.9805 35.6719 65.1836 35.3984C65.3867 35.125 65.6348 34.9141 65.9277 34.7656C66.2207 34.6172 66.5625 34.543 66.9531 34.543C67.3516 34.543 67.7051 34.6211 68.0137 34.7773C68.3223 34.9297 68.582 35.1484 68.793 35.4336C69.0039 35.7148 69.1621 36.0547 69.2676 36.4531C69.373 36.8477 69.4258 37.2871 69.4258 37.7715ZM68.0137 37.8945V37.7715C68.0137 37.4785 67.9863 37.207 67.9316 36.957C67.877 36.7031 67.791 36.4805 67.6738 36.2891C67.5566 36.0977 67.4062 35.9492 67.2227 35.8438C67.043 35.7344 66.8262 35.6797 66.5723 35.6797C66.3223 35.6797 66.1074 35.7227 65.9277 35.8086C65.748 35.8906 65.5977 36.0059 65.4766 36.1543C65.3555 36.3027 65.2617 36.4766 65.1953 36.6758C65.1289 36.8711 65.082 37.084 65.0547 37.3145V38.4512C65.1016 38.7324 65.1816 38.9902 65.2949 39.2246C65.4082 39.459 65.5684 39.6465 65.7754 39.7871C65.9863 39.9238 66.2559 39.9922 66.584 39.9922C66.8379 39.9922 67.0547 39.9375 67.2344 39.8281C67.4141 39.7188 67.5605 39.5684 67.6738 39.377C67.791 39.1816 67.877 38.957 67.9316 38.7031C67.9863 38.4492 68.0137 38.1797 68.0137 37.8945Z" fill="#EEBC1D"/>
</svg>
