<svg width="131" height="54" viewBox="0 0 131 54" fill="none" xmlns="http://www.w3.org/2000/svg">
<rect x="1.5" y="7.5" width="128" height="38" rx="8.5" fill="#EEBC1D" stroke="white" stroke-width="3"/>
<path d="M15.8828 33V31.6328L17.1094 31.375V23.2656L15.8828 23V21.625H20.875C21.8906 21.625 22.7865 21.8646 23.5625 22.3438C24.3385 22.8177 24.9427 23.4766 25.375 24.3203C25.8125 25.1589 26.0312 26.1224 26.0312 27.2109V27.4219C26.0312 28.5 25.8151 29.4609 25.3828 30.3047C24.9557 31.1432 24.3568 31.8021 23.5859 32.2812C22.8151 32.7604 21.9219 33 20.9062 33H15.8828ZM19.3906 31.2578H20.7891C21.4193 31.2578 21.9531 31.0938 22.3906 30.7656C22.8333 30.4323 23.1693 29.9766 23.3984 29.3984C23.6276 28.8203 23.7422 28.1615 23.7422 27.4219V27.2031C23.7422 26.4531 23.6276 25.7917 23.3984 25.2188C23.1693 24.6406 22.8333 24.1901 22.3906 23.8672C21.9531 23.5391 21.4193 23.375 20.7891 23.375H19.3906V31.2578ZM31.1094 33.1641C30.2708 33.1641 29.5521 32.9818 28.9531 32.6172C28.3594 32.2526 27.9036 31.7474 27.5859 31.1016C27.2682 30.4505 27.1094 29.7031 27.1094 28.8594V28.6953C27.1094 27.8568 27.2682 27.1146 27.5859 26.4688C27.9036 25.8177 28.3594 25.3099 28.9531 24.9453C29.5521 24.5755 30.2656 24.3906 31.0938 24.3906C31.9271 24.3906 32.6406 24.5729 33.2344 24.9375C33.8333 25.3021 34.2917 25.8099 34.6094 26.4609C34.9271 27.1068 35.0859 27.8516 35.0859 28.6953V28.8594C35.0859 29.7031 34.9271 30.4505 34.6094 31.1016C34.2917 31.7474 33.8359 32.2526 33.2422 32.6172C32.6484 32.9818 31.9375 33.1641 31.1094 33.1641ZM31.1094 31.4141C31.6979 31.4141 32.1276 31.1797 32.3984 30.7109C32.6745 30.2422 32.8125 29.625 32.8125 28.8594V28.6953C32.8125 27.9453 32.6745 27.3333 32.3984 26.8594C32.1224 26.3854 31.6875 26.1484 31.0938 26.1484C30.5 26.1484 30.0677 26.3854 29.7969 26.8594C29.526 27.3333 29.3906 27.9453 29.3906 28.6953V28.8594C29.3906 29.6302 29.526 30.25 29.7969 30.7188C30.0677 31.1823 30.5052 31.4141 31.1094 31.4141ZM38.6406 33L36.6719 26.1094L35.6406 25.9219V24.5469H39.7266V25.9141L38.8359 26.0859L39.6172 29.375L39.7734 30.0234H39.8203L40.0312 29.375L41.7656 24.5469H43.2969L44.9766 29.4375L45.1953 30.125H45.2422L45.4453 29.4375L46.3672 26.0938L45.3828 25.9141V24.5469H49.3828V25.9219L48.3984 26.1094L46.25 33H44.3281L42.7812 28.8125L42.5078 27.8828H42.4609L42.1875 28.8203L40.6641 33H38.6406ZM50.0234 33V31.6328L51.1172 31.3984V26.1562L49.9062 25.9219V24.5469H53.2422L53.3438 25.7578C53.625 25.3255 53.9714 24.9896 54.3828 24.75C54.7995 24.5104 55.2734 24.3906 55.8047 24.3906C56.638 24.3906 57.2917 24.6589 57.7656 25.1953C58.2448 25.7318 58.4844 26.5729 58.4844 27.7188V31.3984L59.5781 31.6328V33H55.2188V31.6328L56.1953 31.3984V27.7266C56.1953 27.1589 56.0807 26.7578 55.8516 26.5234C55.6276 26.2839 55.2969 26.1641 54.8594 26.1641C54.224 26.1641 53.737 26.4297 53.3984 26.9609V31.3984L54.3203 31.6328V33H50.0234ZM60.2031 33V31.6328L61.3047 31.3984V22.4219L60.0859 22.1875V20.8125H63.5859V31.3984L64.6875 31.6328V33H60.2031ZM69.3125 33.1641C68.474 33.1641 67.7552 32.9818 67.1562 32.6172C66.5625 32.2526 66.1068 31.7474 65.7891 31.1016C65.4714 30.4505 65.3125 29.7031 65.3125 28.8594V28.6953C65.3125 27.8568 65.4714 27.1146 65.7891 26.4688C66.1068 25.8177 66.5625 25.3099 67.1562 24.9453C67.7552 24.5755 68.4688 24.3906 69.2969 24.3906C70.1302 24.3906 70.8438 24.5729 71.4375 24.9375C72.0365 25.3021 72.4948 25.8099 72.8125 26.4609C73.1302 27.1068 73.2891 27.8516 73.2891 28.6953V28.8594C73.2891 29.7031 73.1302 30.4505 72.8125 31.1016C72.4948 31.7474 72.0391 32.2526 71.4453 32.6172C70.8516 32.9818 70.1406 33.1641 69.3125 33.1641ZM69.3125 31.4141C69.901 31.4141 70.3307 31.1797 70.6016 30.7109C70.8776 30.2422 71.0156 29.625 71.0156 28.8594V28.6953C71.0156 27.9453 70.8776 27.3333 70.6016 26.8594C70.3255 26.3854 69.8906 26.1484 69.2969 26.1484C68.7031 26.1484 68.2708 26.3854 68 26.8594C67.7292 27.3333 67.5938 27.9453 67.5938 28.6953V28.8594C67.5938 29.6302 67.7292 30.25 68 30.7188C68.2708 31.1823 68.7083 31.4141 69.3125 31.4141ZM77.1406 33.1641C76.3021 33.1641 75.6354 32.9401 75.1406 32.4922C74.6458 32.0391 74.3984 31.4245 74.3984 30.6484C74.3984 29.8568 74.7188 29.2109 75.3594 28.7109C76.0052 28.2109 76.9531 27.9609 78.2031 27.9609H79.3203V27.3359C79.3203 26.9297 79.2005 26.6016 78.9609 26.3516C78.7266 26.0964 78.3724 25.9688 77.8984 25.9688C77.6536 25.9688 77.4323 26 77.2344 26.0625C77.0417 26.1198 76.8672 26.2031 76.7109 26.3125L76.5312 27.4297H74.8906L74.8594 25.2344C75.3021 24.9844 75.7812 24.7812 76.2969 24.625C76.8125 24.4688 77.388 24.3906 78.0234 24.3906C79.1276 24.3906 80 24.6484 80.6406 25.1641C81.2812 25.6797 81.6016 26.4115 81.6016 27.3594V30.8438C81.6016 30.9583 81.6016 31.0703 81.6016 31.1797C81.6068 31.2891 81.6172 31.3984 81.6328 31.5078L82.5156 31.6328V33H79.6875C79.6302 32.8542 79.5729 32.6979 79.5156 32.5312C79.4583 32.3646 79.4167 32.1979 79.3906 32.0312C79.1198 32.375 78.7995 32.651 78.4297 32.8594C78.0651 33.0625 77.6354 33.1641 77.1406 33.1641ZM77.75 31.4766C78.0677 31.4766 78.3672 31.4062 78.6484 31.2656C78.9349 31.1198 79.1589 30.9297 79.3203 30.6953V29.3594H78.1953C77.6953 29.3594 77.3151 29.474 77.0547 29.7031C76.7995 29.9323 76.6719 30.2083 76.6719 30.5312C76.6719 30.8333 76.7656 31.0677 76.9531 31.2344C77.1458 31.3958 77.4115 31.4766 77.75 31.4766ZM86.5781 33.1641C85.9062 33.1641 85.3281 32.9922 84.8438 32.6484C84.3646 32.2995 83.9974 31.8151 83.7422 31.1953C83.487 30.5703 83.3594 29.8411 83.3594 29.0078V28.8438C83.3594 27.9531 83.487 27.1745 83.7422 26.5078C84.0026 25.8411 84.3724 25.3229 84.8516 24.9531C85.3307 24.5781 85.9036 24.3906 86.5703 24.3906C87.0391 24.3906 87.4453 24.4844 87.7891 24.6719C88.138 24.8542 88.4401 25.1146 88.6953 25.4531V22.4219L87.4766 22.1875V20.8125H90.9766V31.3984L92.0703 31.6328V33H89L88.8281 31.9688C88.5625 32.3594 88.2448 32.6562 87.875 32.8594C87.5052 33.0625 87.0729 33.1641 86.5781 33.1641ZM87.2578 31.3906C87.888 31.3906 88.3672 31.1276 88.6953 30.6016V27.0156C88.3672 26.4479 87.8932 26.1641 87.2734 26.1641C86.7005 26.1641 86.2839 26.4115 86.0234 26.9062C85.7682 27.401 85.6406 28.0469 85.6406 28.8438V29.0078C85.6406 29.7474 85.7656 30.3307 86.0156 30.7578C86.2656 31.1797 86.6797 31.3906 87.2578 31.3906ZM102.078 33.1641C100.969 33.1641 100.005 32.9349 99.1875 32.4766C98.375 32.013 97.7448 31.3594 97.2969 30.5156C96.8542 29.6667 96.6328 28.6641 96.6328 27.5078V27.125C96.6328 26.0208 96.8464 25.0443 97.2734 24.1953C97.7057 23.3411 98.3177 22.6719 99.1094 22.1875C99.9062 21.7031 100.857 21.4609 101.961 21.4609C102.727 21.4609 103.448 21.5703 104.125 21.7891C104.802 22.0078 105.406 22.3411 105.938 22.7891V25.5391H104.242L104.008 23.8125C103.747 23.6302 103.453 23.487 103.125 23.3828C102.797 23.2734 102.427 23.2188 102.016 23.2188C101.052 23.2188 100.294 23.5703 99.7422 24.2734C99.1901 24.9714 98.9141 25.9167 98.9141 27.1094V27.5078C98.9141 28.7057 99.2005 29.6562 99.7734 30.3594C100.346 31.0625 101.128 31.4141 102.117 31.4141C102.445 31.4141 102.773 31.3776 103.102 31.3047C103.435 31.2266 103.737 31.1276 104.008 31.0078L104.242 29.4062H105.938V32.125C105.495 32.4167 104.943 32.6641 104.281 32.8672C103.62 33.0651 102.885 33.1641 102.078 33.1641ZM111.492 33L107.836 23.125L106.82 23V21.625H111.344V23L110.32 23.1562L112.555 29.8672L112.727 30.4922H112.773L112.938 29.8828L115.172 23.1562L113.977 23V21.625H118.289V23L117.258 23.125L113.828 33H111.492Z" fill="#293649"/>
</svg>
