<svg width="80" height="80" viewBox="0 0 80 80" fill="none" xmlns="http://www.w3.org/2000/svg">
<circle cx="40" cy="40" r="40" fill="#EEBC1D"/>
<path d="M40 20C28.9567 20 20 28.955 20 40C20 48.8367 25.73 56.3333 33.6783 58.9783C34.6767 59.1633 35 58.5433 35 58.0167V54.2933C29.4367 55.5033 28.2783 51.9333 28.2783 51.9333C27.3683 49.6217 26.0567 49.0067 26.0567 49.0067C24.2417 47.765 26.195 47.7917 26.195 47.7917C28.2033 47.9317 29.26 49.8533 29.26 49.8533C31.0433 52.91 33.9383 52.0267 35.08 51.515C35.2583 50.2233 35.7767 49.34 36.35 48.8417C31.9083 48.3333 27.2383 46.6183 27.2383 38.9567C27.2383 36.7717 28.02 34.9883 29.2983 33.5883C29.0917 33.0833 28.4067 31.0483 29.4933 28.295C29.4933 28.295 31.1733 27.7583 34.995 30.345C36.59 29.9017 38.3 29.68 40 29.6717C41.7 29.68 43.4117 29.9017 45.01 30.345C48.8283 27.7583 50.505 28.295 50.505 28.295C51.5933 31.05 50.9083 33.085 50.7017 33.5883C51.985 34.9883 52.76 36.7733 52.76 38.9567C52.76 46.6383 48.0817 48.33 43.6283 48.825C44.345 49.445 45 50.6617 45 52.5283V58.0167C45 58.5483 45.32 59.1733 46.335 58.9767C54.2767 56.3283 60 48.8333 60 40C60 28.955 51.045 20 40 20Z" fill="black"/>
</svg>
