<svg width="80" height="80" viewBox="0 0 80 80" fill="none" xmlns="http://www.w3.org/2000/svg">
<circle cx="40" cy="40" r="40" fill="#EEBC1D"/>
<g clip-path="url(#clip0_222_4)">
<path d="M40 23.605C45.34 23.605 45.9733 23.625 48.0833 23.7217C53.5033 23.9683 56.035 26.54 56.2817 31.92C56.3783 34.0283 56.3967 34.6617 56.3967 40.0017C56.3967 45.3433 56.3767 45.975 56.2817 48.0833C56.0333 53.4583 53.5083 56.035 48.0833 56.2817C45.9733 56.3783 45.3433 56.3983 40 56.3983C34.66 56.3983 34.0267 56.3783 31.9183 56.2817C26.485 56.0333 23.9667 53.45 23.72 48.0817C23.6233 45.9733 23.6033 45.3417 23.6033 40C23.6033 34.66 23.625 34.0283 23.72 31.9183C23.9683 26.54 26.4933 23.9667 31.9183 23.72C34.0283 23.625 34.66 23.605 40 23.605ZM40 20C34.5683 20 33.8883 20.0233 31.755 20.12C24.4917 20.4533 20.455 24.4833 20.1217 31.7533C20.0233 33.8883 20 34.5683 20 40C20 45.4317 20.0233 46.1133 20.12 48.2467C20.4533 55.51 24.4833 59.5467 31.7533 59.88C33.8883 59.9767 34.5683 60 40 60C45.4317 60 46.1133 59.9767 48.2467 59.88C55.5033 59.5467 59.55 55.5167 59.8783 48.2467C59.9767 46.1133 60 45.4317 60 40C60 34.5683 59.9767 33.8883 59.88 31.755C59.5533 24.4983 55.5183 20.455 48.2483 20.1217C46.1133 20.0233 45.4317 20 40 20V20ZM40 29.73C34.3283 29.73 29.73 34.3283 29.73 40C29.73 45.6717 34.3283 50.2717 40 50.2717C45.6717 50.2717 50.27 45.6733 50.27 40C50.27 34.3283 45.6717 29.73 40 29.73ZM40 46.6667C36.3183 46.6667 33.3333 43.6833 33.3333 40C33.3333 36.3183 36.3183 33.3333 40 33.3333C43.6817 33.3333 46.6667 36.3183 46.6667 40C46.6667 43.6833 43.6817 46.6667 40 46.6667ZM50.6767 26.925C49.35 26.925 48.275 28 48.275 29.325C48.275 30.65 49.35 31.725 50.6767 31.725C52.0017 31.725 53.075 30.65 53.075 29.325C53.075 28 52.0017 26.925 50.6767 26.925Z" fill="black"/>
</g>
<defs>
<clipPath id="clip0_222_4">
<rect width="40" height="40" fill="white" transform="translate(20 20)"/>
</clipPath>
</defs>
</svg>
