<svg width="80" height="80" viewBox="0 0 80 80" fill="none" xmlns="http://www.w3.org/2000/svg">
<circle cx="40" cy="40" r="40" fill="#EEBC1D"/>
<path d="M51.6667 20H28.3333C23.7317 20 20 23.7317 20 28.3333V51.6667C20 56.2683 23.7317 60 28.3333 60H51.6667C56.27 60 60 56.2683 60 51.6667V28.3333C60 23.7317 56.27 20 51.6667 20ZM33.3333 51.6667H28.3333V33.3333H33.3333V51.6667ZM30.8333 31.22C29.2233 31.22 27.9167 29.9033 27.9167 28.28C27.9167 26.6567 29.2233 25.34 30.8333 25.34C32.4433 25.34 33.75 26.6567 33.75 28.28C33.75 29.9033 32.445 31.22 30.8333 31.22ZM53.3333 51.6667H48.3333V42.3267C48.3333 36.7133 41.6667 37.1383 41.6667 42.3267V51.6667H36.6667V33.3333H41.6667V36.275C43.9933 31.965 53.3333 31.6467 53.3333 40.4017V51.6667Z" fill="black"/>
</svg>
