<svg width="80" height="80" viewBox="0 0 80 80" fill="none" xmlns="http://www.w3.org/2000/svg">
<circle cx="40" cy="40" r="40" fill="#EEBC1D"/>
<path d="M20.095 60L22.9067 49.7283C21.1717 46.7217 20.26 43.3133 20.2617 39.8183C20.2667 28.8917 29.1583 20 40.0833 20C45.385 20.0017 50.3617 22.0667 54.105 25.8133C57.8467 29.56 59.9067 34.54 59.905 39.8367C59.9 50.765 51.0083 59.6567 40.0833 59.6567C36.7667 59.655 33.4983 58.8233 30.6033 57.2433L20.095 60V60ZM31.09 53.655C33.8833 55.3133 36.55 56.3067 40.0767 56.3083C49.1567 56.3083 56.5533 48.9183 56.5583 39.8333C56.5617 30.73 49.2 23.35 40.09 23.3467C31.0033 23.3467 23.6117 30.7367 23.6083 39.82C23.6067 43.5283 24.6933 46.305 26.5183 49.21L24.8533 55.29L31.09 53.655V53.655ZM50.0683 44.5483C49.945 44.3417 49.615 44.2183 49.1183 43.97C48.6233 43.7217 46.1883 42.5233 45.7333 42.3583C45.28 42.1933 44.95 42.11 44.6183 42.6067C44.2883 43.1017 43.3383 44.2183 43.05 44.5483C42.7617 44.8783 42.4717 44.92 41.9767 44.6717C41.4817 44.4233 39.885 43.9017 37.9933 42.2133C36.5217 40.9 35.5267 39.2783 35.2383 38.7817C34.95 38.2867 35.2083 38.0183 35.455 37.7717C35.6783 37.55 35.95 37.1933 36.1983 36.9033C36.45 36.6167 36.5317 36.41 36.6983 36.0783C36.8633 35.7483 36.7817 35.4583 36.6567 35.21C36.5317 34.9633 35.5417 32.525 35.13 31.5333C34.7267 30.5683 34.3183 30.6983 34.015 30.6833L33.065 30.6667C32.735 30.6667 32.1983 30.79 31.745 31.2867C31.2917 31.7833 30.0117 32.98 30.0117 35.4183C30.0117 37.8567 31.7867 40.2117 32.0333 40.5417C32.2817 40.8717 35.525 45.875 40.4933 48.02C41.675 48.53 42.5983 48.835 43.3167 49.0633C44.5033 49.44 45.5833 49.3867 46.4367 49.26C47.3883 49.1183 49.3667 48.0617 49.78 46.905C50.1933 45.7467 50.1933 44.755 50.0683 44.5483V44.5483Z" fill="black"/>
</svg>
